<?xml version="1.0" encoding="utf-8"?>
<!-- Generator: Adobe Illustrator 22.1.0, SVG Export Plug-In . SVG Version: 6.00 Build 0)  -->
<svg version="1.1" id="Layer_1" xmlns="http://www.w3.org/2000/svg" xmlns:xlink="http://www.w3.org/1999/xlink" x="0px" y="0px"
	 viewBox="0 0 259 180.7" style="enable-background:new 0 0 259 180.7;" xml:space="preserve">
<style type="text/css">
	.st0{fill:#0054C6;}
	.st1{fill:#4184F3;}
	.st2{fill:#FFD421;}
	.st3{fill:#FACC4F;}
	.st4{fill:#FFE05F;}
	.st5{fill:#FFE869;}
	.st6{fill:#00FF58;}
	.st7{opacity:0.364;fill:url(#Path_1450_1_);enable-background:new    ;}
	.st8{fill:#FFE164;}
	.st9{opacity:0.768;}
	.st10{fill:url(#Path_1442_1_);}
	.st11{opacity:0.7;}
	.st12{opacity:0.535;fill:#FFFFFF;enable-background:new    ;}
	.st13{fill:#E2AA11;}
	.st14{fill:#727272;}
	.st15{fill:#FFFFFF;}
	.st16{fill:none;stroke:#707070;}
</style>
<path id="Path_1424" class="st0" d="M140.9,2.5c47.1,0,85.2,38.2,85.2,85.2S188,173,140.9,173s-85.2-38.2-85.2-85.2c0,0,0,0,0,0
	C55.7,40.7,93.8,2.5,140.9,2.5z"/>
<path id="Path_1434" class="st1" d="M223.5,57.6c9.9,0,17.9,8,17.9,17.9s-8,17.9-17.9,17.9c-9.9,0-17.9-8-17.9-17.9c0,0,0,0,0,0
	C205.6,65.6,213.6,57.6,223.5,57.6z"/>
<path id="Path_1451" class="st1" d="M71.3,111.3c19.2,0,34.7,15.5,34.7,34.7s-15.5,34.7-34.7,34.7S36.5,165.2,36.5,146
	S52.1,111.3,71.3,111.3C71.3,111.3,71.3,111.3,71.3,111.3z"/>
<g>
	<g id="Group_1838" transform="translate(166.433 53.701)">
		<path id="Path_1436" class="st2" d="M53.1,33.7L53.1,33.7c0.8,0.5,1.9,0.2,2.4-0.6L73.6,2.6c0.5-0.8,0.2-1.9-0.6-2.4l0,0
			c-0.8-0.5-1.9-0.2-2.4,0.6L52.5,31.3C52,32.1,52.3,33.2,53.1,33.7z"/>
	</g>
	<g id="Group_1839" transform="translate(161.137 81.074)">
		<circle id="Ellipse_329" class="st3" cx="58.4" cy="6.2" r="6.2"/>
	</g>
</g>
<g>
	<g id="Group_1837" transform="translate(168.363 16.362)">
		<path id="Path_1435" class="st4" d="M54.2,2.3L54.2,2.3c-0.5,0.7-0.5,1.7,0,2.5L69,38c0.7,1.6,2.2,2.5,3,1.8l0,0
			c0.5-0.7,0.5-1.7,0-2.5L57.2,4.1C56.4,2.5,54.9,1.6,54.2,2.3z"/>
	</g>
	<g id="Group_1840" transform="translate(180.086 49.812)">
		<circle id="Ellipse_330" class="st5" cx="56.9" cy="4.7" r="4.7"/>
	</g>
</g>
<g>
	<g id="Group_1842" transform="translate(3.91 85.477)">
		<path id="Path_1438" class="st2" d="M73,0.2L73,0.2c-0.8-0.5-1.9-0.2-2.4,0.6L52.5,31.3c-0.5,0.8-0.2,1.9,0.6,2.4l0,0
			c0.8,0.5,1.9,0.2,2.4-0.6L73.6,2.6C74.1,1.8,73.8,0.7,73,0.2z"/>
	</g>
	<g id="Group_1844" transform="translate(19.441 81.074)">
		<circle id="Ellipse_332" class="st3" cx="58.4" cy="6.2" r="6.2"/>
	</g>
</g>
<g id="Group_1846" transform="translate(78.484 40.673)">
	<path id="Path_1439" class="st6" d="M75.7,37.2H61.3c-2.1,0.1-4-1.5-4.3-3.6L52.2,4.3c-0.1-2.3,1.6-4.2,3.9-4.3c0.1,0,0.3,0,0.4,0
		h24.4c2.3-0.1,4.2,1.7,4.3,3.9c0,0.1,0,0.3,0,0.4L80,33.5C79.7,35.7,77.8,37.2,75.7,37.2z"/>
</g>
<linearGradient id="Path_1450_1_" gradientUnits="userSpaceOnUse" x1="-452.5457" y1="613.3503" x2="-452.5457" y2="612.3503" gradientTransform="matrix(71.0508 0 0 -83.0195 32302.334 51010.6211)">
	<stop  offset="0" style="stop-color:#FFF9D8"/>
	<stop  offset="1" style="stop-color:#FDFDFD"/>
</linearGradient>
<path id="Path_1450" class="st7" d="M132.4,90.6l-19.3,83h71.1l-18.2-83H132.4z"/>
<g>
	<g id="Group_1845" transform="translate(29.161 69.767)">
		<ellipse id="Ellipse_333" class="st8" cx="119.6" cy="2.9" rx="67.4" ry="2.9"/>
	</g>
	<g id="Group_1849" transform="translate(28.893 96.27)">
		<ellipse id="Ellipse_334" class="st3" cx="119.6" cy="2.9" rx="67.4" ry="2.9"/>
	</g>
	<g id="Group_1850" transform="translate(40.668 29.5)" class="st9">
		
			<linearGradient id="Path_1442_1_" gradientUnits="userSpaceOnUse" x1="-445.3172" y1="797.2416" x2="-445.3172" y2="796.2416" gradientTransform="matrix(111.0169 0 0 -44.982 49545.4805 35861.5391)">
			<stop  offset="0" style="stop-color:#FFF4B5"/>
			<stop  offset="1" style="stop-color:#FCF3EF"/>
		</linearGradient>
		<path id="Path_1442" class="st10" d="M161.5,45c1,0,1.7-0.8,1.7-1.7c0,0,0,0,0-0.1C162.1,19.2,137.7,0,107.7,0
			S53.4,19.2,52.2,43.2c0,1,0.7,1.8,1.7,1.8c0,0,0.1,0,0.1,0H161.5z"/>
	</g>
	<g id="Group_1851" transform="translate(57.474 36.77)" class="st11">
		<path id="Path_1443" class="st12" d="M53.3,37.6h12.2c0.4,0,0.8-0.4,0.8-0.8c0-0.1,0-0.2,0-0.3c-1.4-4.1-5.7-19.8,1.2-35.4
			c0.2-0.4,0-0.9-0.4-1.1c-0.3-0.2-0.7-0.1-1,0.2c-5.9,6.9-15.6,21.1-13.6,36.6C52.6,37.3,52.9,37.6,53.3,37.6z"/>
	</g>
	<g id="Group_1852" transform="translate(28.983 72.762)">
		<rect id="Rectangle_2010" x="52.2" y="0" class="st3" width="134.8" height="26.4"/>
	</g>
	<g id="Group_1853" transform="translate(29.161 72.784)">
		<path id="Path_1444" class="st5" d="M187.1,0c0,1.6-30.2,2.9-67.4,2.9S52.2,1.6,52.2,0"/>
	</g>
</g>
<g>
	<g id="Group_1858" transform="translate(160.843 0)">
		<path id="Path_1447" class="st3" d="M64,24c-0.1,0-0.3,0-0.4,0c-1.2-0.2-2-1.4-1.8-2.6l1.7-9.3c0.1-0.7-0.2-1.4-0.9-1.8l-9.1-4.6
			c-1.1-0.6-1.5-1.9-1-3c0.6-1.1,1.9-1.5,3-1l9.1,4.6c2.4,1.2,3.8,3.9,3.3,6.6l-1.7,9.3C66,23.2,65.1,24,64,24z"/>
	</g>
	<g id="Group_1859" transform="translate(158.716 13.694)">
		<path id="Path_1448" class="st13" d="M66.1,10.4c-0.3,0-0.6-0.1-0.9-0.2l-11.5-5c-1.1-0.5-1.6-1.8-1.1-3c0.5-1.1,1.8-1.6,2.9-1.2
			l11.5,5c1.1,0.5,1.7,1.8,1.2,2.9c0,0,0,0,0,0C67.8,9.8,67,10.4,66.1,10.4z"/>
	</g>
	<g id="Group_1860" transform="translate(171.885 5.813)">
		<circle id="Ellipse_337" class="st5" cx="54.7" cy="5" r="2.2"/>
	</g>
	<g id="Group_1861" transform="translate(170.522 19.534)">
		<circle id="Ellipse_338" class="st5" cx="54.3" cy="2.2" r="2.2"/>
	</g>
</g>
<circle id="Ellipse_339" class="st14" cx="146.9" cy="56.6" r="8.6"/>
<path id="Path_1449" class="st15" d="M152.3,54.5c2.4,0,4.3,1.9,4.3,4.3c0,2.4-1.9,4.3-4.3,4.3c-2.4,0-4.3-1.9-4.3-4.3
	C148,56.4,149.9,54.5,152.3,54.5C152.3,54.5,152.3,54.5,152.3,54.5z"/>
<circle class="st15" cx="152.3" cy="58.8" r="2.2"/>
<circle class="st16" cx="152.3" cy="58.8" r="1.7"/>
<circle id="Ellipse_342" class="st3" cx="231" cy="154.6" r="3"/>
<circle id="Ellipse_345" class="st3" cx="2.5" cy="60.1" r="2.5"/>
<circle id="Ellipse_344" class="st3" cx="26.5" cy="92.1" r="4.5"/>
<circle id="Ellipse_343" class="st3" cx="257.5" cy="115.1" r="1.5"/>
<g>
	<g id="Group_1841" transform="translate(3.449 116.718)">
		<path id="Path_1437" class="st4" d="M71.2,37.5L71.2,37.5c0.5-0.7,0.6-1.7,0-2.5L55.7,2c-0.8-1.6-2.3-2.5-3.1-1.7l0,0
			c-0.5,0.7-0.6,1.7,0,2.5l15.5,33C68.8,37.3,70.4,38.2,71.2,37.5z"/>
	</g>
	<g id="Group_1843" transform="translate(0 112.672)">
		<circle id="Ellipse_331" class="st5" cx="56.9" cy="4.7" r="4.7"/>
	</g>
</g>
<g>
	<g id="Group_1854" transform="translate(15.992 151.646)">
		<path id="Path_1445" class="st3" d="M65.2,23.1c-0.4,0-0.8-0.1-1.1-0.3l-8.8-5.2c-2.3-1.4-3.5-4.1-2.8-6.8l2.3-9.2
			C55,0.5,56.2-0.2,57.4,0c1.2,0.3,1.9,1.5,1.7,2.7c0,0,0,0,0,0l-2.3,9.2c-0.2,0.7,0.1,1.4,0.8,1.8l8.8,5.2c1.1,0.6,1.4,2,0.8,3.1
			c0,0,0,0,0,0C66.8,22.7,66,23.1,65.2,23.1z"/>
	</g>
	<g id="Group_1855" transform="translate(19.637 151.008)">
		<path id="Path_1446" class="st13" d="M64.3,9.4c-0.4,0-0.7-0.1-1-0.2L52.1,3.4c-1.1-0.6-1.5-1.9-0.9-3c0.6-1.1,1.9-1.5,3-1
			l11.1,5.7c1.1,0.6,1.5,1.9,1,3c0,0,0,0,0,0C65.9,8.9,65.1,9.4,64.3,9.4z"/>
	</g>
	<g id="Group_1856" transform="translate(16.067 163.755)">
		<circle id="Ellipse_335" class="st5" cx="54.5" cy="1.7" r="2.2"/>
	</g>
	<g id="Group_1857" transform="translate(18.301 150.146)">
		<circle id="Ellipse_336" class="st5" cx="54.6" cy="2.3" r="2.2"/>
	</g>
</g>
</svg>
