<?xml version="1.0" encoding="utf-8"?>
<!-- Generator: Adobe Illustrator 22.1.0, SVG Export Plug-In . SVG Version: 6.00 Build 0)  -->
<svg version="1.1" id="Layer_1" xmlns="http://www.w3.org/2000/svg" xmlns:xlink="http://www.w3.org/1999/xlink" x="0px" y="0px"
	 viewBox="0 0 230.8 180.7" style="enable-background:new 0 0 230.8 180.7;" xml:space="preserve">
<style type="text/css">
	.st0{fill:#0054C6;}
	.st1{fill:#4184F3;}
	.st2{fill:#FFEEBA;}
	.st3{fill:#DEB138;}
	.st4{fill:#FFE869;}
	.st5{fill:#FFF03B;}
	.st6{fill:#FFD800;}
	.st7{fill:#FFFABE;}
	.st8{fill:#FFBD27;}
</style>
<path id="Path_1424" class="st0" d="M134.4,20.3c43.7,0,79.1,35.4,79.1,79.1s-35.4,79.1-79.1,79.1s-79.1-35.4-79.1-79.1c0,0,0,0,0,0
	C55.3,55.7,90.7,20.3,134.4,20.3z"/>
<path id="Path_1434" class="st1" d="M60.6,88.6c25.4,0,46.1,20.6,46.1,46.1s-20.6,46.1-46.1,46.1s-46.1-20.6-46.1-46.1c0,0,0,0,0,0
	C14.5,109.2,35.2,88.6,60.6,88.6z"/>
<g id="Group_1818" transform="translate(1.844 1.119)">
	<g id="Group_1817">
		<path id="Path_1423" class="st2" d="M21.5,131.7l47.6-8.3l7.1-1.1l0.8-0.7l-2.3-1.6l0.3-0.3l2.4,1.6l42.8-39.5l10.9-10.1
			l30.1-22.9l0.1,0.2L182,85.1l-9.9,33.2l-0.1,0.1l-59.1,27.9l-0.1-0.1l-35.3-24.3l-1,0.9h-0.1l-7.2,1l-46.9,7.5 M77.8,121.5
			l35.1,24.2l31-14.2l27.8-13.6l9.8-32.8l-16.5-29.6l-4-6.1l-29.7,22.5L119.8,82L77.8,121.5z"/>
	</g>
</g>
<g id="Group_1819" transform="translate(49.799 68.3)">
	<circle id="Ellipse_313" class="st3" cx="28" cy="55.2" r="6.5"/>
</g>
<g id="Group_1820" transform="translate(89.052 93.372)">
	<ellipse id="Ellipse_314" class="st4" cx="25.7" cy="52.7" rx="4.2" ry="4"/>
</g>
<g id="Group_1821" transform="translate(160.491 35.966)">
	<ellipse id="Ellipse_315" class="st5" cx="23.1" cy="50.2" rx="1.6" ry="1.5"/>
</g>
<g id="Group_1822" transform="translate(26.445 -11.721)">
	<ellipse id="Ellipse_316" class="st6" cx="23.8" cy="51" rx="2.2" ry="2.2"/>
</g>
<g id="Group_1836" transform="translate(43.445 -48.721)">
	<ellipse id="Ellipse_316-2" class="st6" cx="22.3" cy="49.5" rx="0.8" ry="0.7"/>
</g>
<g id="Group_1823" transform="translate(24.842 62.43)">
	<ellipse id="Ellipse_317" class="st5" cx="22.7" cy="49.8" rx="1.2" ry="1.1"/>
</g>
<g id="Group_1824" transform="translate(109.341 21.092)">
	<ellipse id="Ellipse_318" class="st7" cx="23.8" cy="50.9" rx="2.3" ry="2.2"/>
</g>
<g id="Group_1825" transform="translate(0 81.284)">
	<ellipse id="Ellipse_319" class="st8" cx="23.9" cy="51" rx="2.4" ry="2.3"/>
</g>
<g id="Group_1826" transform="translate(201.464 34.094)">
	<ellipse id="Ellipse_320" class="st6" cx="25.4" cy="52.5" rx="3.9" ry="3.7"/>
</g>
<g id="Group_1835" transform="translate(-21.536 46.094)">
	<circle id="Ellipse_320-2" class="st6" cx="25.5" cy="52.7" r="4"/>
</g>
<g id="Group_1827" transform="translate(149.009 67.43)">
	<ellipse id="Ellipse_321" class="st6" cx="24.2" cy="51.3" rx="2.7" ry="2.5"/>
</g>
<g id="Group_1828" transform="translate(139.527)">
	<ellipse id="Ellipse_322" class="st8" cx="23.2" cy="50.3" rx="1.7" ry="1.6"/>
</g>
</svg>
