<?xml version="1.0" encoding="utf-8"?>
<!-- Generator: Adobe Illustrator 22.1.0, SVG Export Plug-In . SVG Version: 6.00 Build 0)  -->
<svg version="1.1" id="Layer_1" xmlns="http://www.w3.org/2000/svg" xmlns:xlink="http://www.w3.org/1999/xlink" x="0px" y="0px"
	 viewBox="0 0 193.1 180.7" style="enable-background:new 0 0 193.1 180.7;" xml:space="preserve">
<style type="text/css">
	.st0{fill:#0054C6;}
	.st1{fill:#FFEA46;}
	.st2{fill:#FFEA79;}
	.st3{fill:#FDF994;}
	.st4{fill:#EDCA35;}
	.st5{fill:#F7E585;}
	.st6{fill:#FFC834;}
	.st7{fill:#1771ED;}
	.st8{fill:#4184F3;}
	.st9{fill:#E5BB45;}
	.st10{fill:#F9EDBD;}
	.st11{fill:#F9C95F;}
	.st12{fill:#FFD469;}
	.st13{fill:#FFCB48;}
</style>
<ellipse id="Ellipse_323" class="st0" cx="90.4" cy="90.4" rx="90.4" ry="90.4"/>
<ellipse id="Ellipse_308" class="st1" cx="151" cy="117.9" rx="2.6" ry="2.6"/>
<ellipse id="Ellipse_310" class="st2" cx="32.7" cy="117.9" rx="2.6" ry="2.6"/>
<circle id="Ellipse_309" class="st3" cx="191.6" cy="60.7" r="1.5"/>
<circle id="Ellipse_311" class="st4" cx="56.6" cy="85.2" r="1.5"/>
<circle id="Ellipse_312" class="st5" cx="30.1" cy="60.2" r="1.5"/>
<circle id="Ellipse_324" class="st6" cx="179" cy="144" r="1.5"/>
<ellipse id="Ellipse_326" class="st7" cx="148.1" cy="38.7" rx="35.6" ry="35.6"/>
<ellipse id="Ellipse_327" class="st8" cx="22.6" cy="149.1" rx="12.6" ry="12.6"/>
<g id="Group_1832" transform="translate(917.554 492.503)">
	<path id="Path_1425" class="st9" d="M-805.6-336L-805.6-336c-1.2,0-2.2-1-2.2-2.2c0,0,0,0,0,0V-400c0-1.2,1-2.2,2.2-2.2
		c0,0,0,0,0,0l0,0c1.2,0,2.2,1,2.2,2.2c0,0,0,0,0,0v61.9C-803.4-336.9-804.4-336-805.6-336z"/>
	<path id="Path_1426" class="st10" d="M-750.1-411l-85.7,27.9l-3.1-5.7l73.9-50L-750.1-411z"/>
	<path id="Path_1427" class="st11" d="M-748.3-409.6l-5.4,2.7c-0.8,0.4-1.8,0.1-2.2-0.7c0,0,0,0,0,0l-14.7-29.3
		c-0.4-0.8-0.1-1.8,0.7-2.2c0,0,0,0,0,0l5.4-2.7c0.8-0.4,1.8-0.1,2.2,0.7c0,0,0,0,0,0l14.7,29.3C-747.2-411-747.5-410-748.3-409.6z"
		/>
	<path id="Path_1428" class="st11" d="M-819.6-386.6l-5.4,1.6c-0.8,0.2-1.6-0.1-1.9-0.9l-4-8.3c-0.3-0.7-0.1-1.5,0.5-2l4.4-3.3
		c0.7-0.5,1.7-0.4,2.3,0.3c0.1,0.1,0.1,0.2,0.2,0.3l5,10c0.4,0.8,0.1,1.8-0.7,2.2C-819.4-386.7-819.5-386.7-819.6-386.6z"/>
	<path id="Path_1429" class="st11" d="M-794-419.9l10.1,20c0.4,0.7,1.2,1.1,1.9,0.8l8.8-2.8c0.9-0.3,1.3-1.2,1.1-2.1
		c0-0.1-0.1-0.2-0.1-0.2l-11.4-22.5c-0.4-0.8-1.4-1.1-2.2-0.7c-0.1,0-0.1,0.1-0.2,0.1l-7.5,5.3C-794.1-421.5-794.3-420.6-794-419.9z
		"/>
	<g id="Group_1830" transform="translate(24.026 51.757)">
		<path id="Path_1430" class="st11" d="M-859.8-433c-0.4,0-0.7-0.2-0.9-0.6l-3.3-7.1c-0.2-0.5,0-1.1,0.5-1.3c0.5-0.2,1.1,0,1.3,0.5
			l3.3,7.1c0.2,0.5,0,1.1-0.5,1.3C-859.5-433-859.6-433-859.8-433z"/>
	</g>
	<path id="Path_1431" class="st12" d="M-802.7-336.1h-0.4c-1.2,0-2.2-1-2.2-2.2l0,0v-61.6c0-1.2,1-2.2,2.2-2.2c0,0,0,0,0,0h0.4
		c1.2,0,2.2,1,2.2,2.2c0,0,0,0,0,0v61.6C-800.5-337.1-801.5-336.1-802.7-336.1C-802.7-336.1-802.7-336.1-802.7-336.1z"/>
	<circle id="Ellipse_328" class="st9" cx="-802.8" cy="-399.3" r="1.6"/>
	<path id="Path_1432" class="st10" d="M-794.7-335.6h-20.2c-0.9,0-1.6-0.7-1.6-1.6v-5.1c0-0.9,0.7-1.6,1.6-1.6h20.2
		c0.9,0,1.6,0.7,1.6,1.6v5.1C-793.1-336.4-793.8-335.6-794.7-335.6z"/>
	<path id="Path_1433" class="st13" d="M-758.4-327.6h-103.9c-0.9,0-1.6-0.7-1.6-1.6v-5.1c0-0.9,0.7-1.6,1.6-1.6h103.9
		c0.9,0,1.6,0.7,1.6,1.6v5.1C-756.8-328.3-757.5-327.6-758.4-327.6C-758.4-327.6-758.4-327.6-758.4-327.6z"/>
</g>
</svg>
